<svg xmlns="http://www.w3.org/2000/svg" viewBox="0 0 248.3 208.79"><defs><style>.cls-1{fill:#47a;}</style></defs><title>Asset 3</title><g id="Layer_2" data-name="Layer 2"><g id="Layer_1-2" data-name="Layer 1"><g id="Layer_2-2" data-name="Layer 2"><g id="Layer_1-2-2" data-name="Layer 1-2"><g id="Layer_2-2-2" data-name="Layer 2-2"><g id="Layer_1-2-2-2" data-name="Layer 1-2-2"><path class="cls-1" d="M24.49,53.79a23.53,23.53,0,0,1,1.82-2.47c4.07-4.26,4.7-9.49,4.13-15a11.57,11.57,0,0,0-1.61-4.2,43.64,43.64,0,0,0-4.13-6.46c-2.18-2.63-1.17-7.15.58-11,1.09,1.36,2,2.6,3,3.75A8.83,8.83,0,0,0,30,19.57c.32-.67,1-1.4.91-2-.44-2.71-1.11-5.4-1.67-8.09h-.75l-1.1,5.28c-1-1.92-.11-7.86,1.36-9a2.36,2.36,0,0,1,1.92-.12A36.66,36.66,0,0,1,34.25,7.4a4.59,4.59,0,0,0-.48-5.06c-.54-.6-1.85-.55-3-.9C31,1.12,31.83-.12,32.14,0a8.19,8.19,0,0,1,3.7,2.13C37.51,4.25,38.62,6.8,40.23,9c2.4,3.22,5,6.33,9.23,7.2a2.77,2.77,0,0,1,.85.43c3.32,2.07,10.85,11.63,12.28,15.68L61,32.18l11.2,16.9c1.25,1.88.11,2.8-1.52,3-3.17.33-6.37.37-9.56.51a14.22,14.22,0,0,0-2.49.19c7.11,4,14.68,1.47,22.09,1.23l.12.77-4.32,2c5,1.62,9.95,1.7,13.9,5H85.14l-.25.63,12.1,8-.34,1-8.14-1.23-.25.44c1,.71,1.92,1.47,3,2.11A113.56,113.56,0,0,0,131.9,88.34,94.72,94.72,0,0,1,157,96.09a10.83,10.83,0,0,1,3.25,2.18L157.45,98l9.16,5.28-.21.59-2.1.16c5.53,1.86,8.64,6.14,11.58,10.69,4.05,6.31,10.49,8,17.37,8.58,3.9.3,7.83.14,11.74.18h4l-4.32,4.73v.61c7.82-.9,14.62,1.5,20.91,6-5.08.51-10.52-.34-14.41,4.48l3.47,1.87-12.07,1,0,.75,2.54.36c-2,2-3.13,2.19-5,.34a80.57,80.57,0,0,1-5.46-6.34c-2.21-2.63-4.27-5.4-6.65-7.87a9.39,9.39,0,0,0-9.45-2.67c-3.08.73-4.35,0-5.45-3.09a46.92,46.92,0,0,0-3-7.54c.68,3.17,1.2,6.4,2.08,9.51.77,2.73,2.4,4,5.22,3.52,6.09-1,10,2,13,6.64,4.91,7.49,9.6,15.13,14.46,22.64a38.73,38.73,0,0,0,4.4,5.35,4.38,4.38,0,0,1,.8,5.49c-.72,1.12-2.71,1.56-4.22,2-.52.14-1.31-.7-2-1.11l-.24,2.36c-1.92-2-2.12-2.81-2.64-8a16.62,16.62,0,0,0-.48,4c.23,2-.8,2.61-2.37,2.84a8.36,8.36,0,0,1-2.88,0c-.65-.13-1.2-.76-2-1.34l-1.11,1.57c-.61-3.17,2.88-11.79,5-12.48l-.28-.59c-.78.48-2,.73-2.27,1.41-1.76,3.81-3.31,7.72-5.17,12.18-.38-1.52-1-2.64-.85-3.68a55.52,55.52,0,0,1,1.66-8.4c.2-.71,1.65-1.06,3-1.84a16,16,0,0,0-.86-2.55c-3.46-7.14-9.48-11.52-16.39-14.82-1.29-.61-3-.48-4.48-.55-3.51-.11-7.05.09-10.56-.21-6.5-.57-11.7-4-16.52-8.11A89.51,89.51,0,0,0,112.6,114a7.35,7.35,0,0,0-2.59-.44l7.45,4.46c-4.36,2.3-8.2,4-11.72,6.24s-6.78,4.8-11.16,5.6l3.23,1.39,0,.43H93.09l2.08,2.25c-6.46-1.4-12.17-4.68-19-3.78l1.76,2.61c-7.38-.26-9.71-9-6.67-17.51.15,0,.33-.14.45-.09,3.21,1.34,4.05.9,3.56-2.61-.52-3.75-1.63-7.43-2.59-11.65l6.67,2.4C75.73,97.55,70.67,94.36,64.85,92c.91.77,1.84,1.51,2.71,2.31s1.73,1.72,3.08,3.06L66.1,98l6.11,12.82-3.78-2.12a23.81,23.81,0,0,0-.71,3.23c-.91,13.56-1.86,27.12-2.62,40.69A17.33,17.33,0,0,0,67.2,162.7c1.24,2.14,1.21,5.28,1,7.92-.24,3.13-4.51,5-6.8,3.28L61,175.69c-2-3.27-1.34-6.55-.78-9.83l-.58-.07-1.5,8.31a40.63,40.63,0,0,1-5-.48c-.29-.06-.3-1.53-.48-2.62l-1.28,3-.45-.09a24.65,24.65,0,0,1,1-4.66c1.24-2.92,2.78-5.71,4.15-8.58a5.35,5.35,0,0,0,.48-1.83c1.47-17.61-1-34.46-9.63-50.13-.22-.4-.48-.76-.73-1.14l-.63.24,4.8,15-.44.28-8.26-13.16L39.62,115,36.68,100l-1,0-1.48,5.22c-1.81-7.38-2.66-14.94-6.05-21.9v6.05a10.4,10.4,0,0,1-3.42-7.05c0-2.58.38-5.18.65-8.33l-3,3.36c.11-1.18.15-1.82.24-2.45.48-3.8,1-7.59,1.38-11.4.27-3.11,1-6,3.09-8.38a4.16,4.16,0,0,0,1-2.4L24.79,54.1Zm28-12.92a43.1,43.1,0,0,0-.94,4.48c-.06.61.21,1.63.63,1.83A25.77,25.77,0,0,0,68.1,49.69L58.84,41.1l-.52.4.32,2.72-.32.13-3.89-7.8-.51.19,2.47,9ZM50.42,24.33l.61-.45L45.9,16.37l-1.64,2.84Z"/><path class="cls-1" d="M138.39,133.28l-3.22-1.92-.8.4,2.82,9.18-2.4.16c0,.35-.16.63-.07.79,1.92,3.41.08,5.76-2.25,7.91a41.17,41.17,0,0,1-3.66,3.09c-3.42,2.51-5.43,6-7.05,9.79s-6.65,6-10.46,4.89c-.33-.1-.58-.48-1-.79l-1.27,1.58-.61-.39,5.68-9.12c-1-.13-1.85.62-2.64,2.06a32.74,32.74,0,0,1-4.13,5.76c-.42.48-1.72.19-2.61.24l-.09-.72-1.81,1.49-.59-.4c.73-1.08,1.41-2.2,2.22-3.21a55.86,55.86,0,0,1,3.74-4.24,8.42,8.42,0,0,1,2.17-1.3c1.64-.85,3.73-1.29,4.86-2.58a67.45,67.45,0,0,0,6.48-9.06,5.37,5.37,0,0,0-.46-6.13c-1.92-2.65-4-5.21-6-7.76-1.24-1.57-2.64-3-3.84-4.61-1.86-2.51-1.66-3.21,1.12-4.44a17.71,17.71,0,0,1,12.86-.65A23.94,23.94,0,0,1,138.39,133.28Z"/><path class="cls-1" d="M151.47,195.92c1.41-4.52,2.67-8.53,3.92-12.55.31-1,.54-2.26,1.92-1.79a3.43,3.43,0,0,1,2,1.78c1.39,3.93,2.6,7.94,4.08,12.55,1.41-4.32,2.75-8,3.74-11.72.63-2.4,1.71-3.57,4.32-3.13a23.7,23.7,0,0,0,3.69,0c-.29,1.08-.45,1.92-.73,2.69-2.67,7.6-5.39,15.19-8,22.8a2.46,2.46,0,0,1-2.71,2c-1.58,0-2.2-.67-2.63-2.11A79.32,79.32,0,0,0,157.08,196l-2.63,7.75a14.47,14.47,0,0,1-1.17,3.36,3.21,3.21,0,0,1-2.3,1.33,2.88,2.88,0,0,1-2.27-1.32c-3-8-5.82-16.05-8.68-24.09a12.34,12.34,0,0,1-.31-1.92,51,51,0,0,1,5.85.08c.58.07,1.29,1,1.54,1.71C148.59,187,149.91,191.19,151.47,195.92Z"/><path class="cls-1" d="M204.92,194.64c0,8.35-5.51,14.13-13.56,14.16s-13.88-5.76-13.87-14.16c0-8,5.7-13.86,13.64-14S204.89,186.41,204.92,194.64Zm-20.42.26c0,4.32,2.81,7.29,6.84,7.26s6.75-3.11,6.72-7.4-2.85-7.38-6.77-7.42-6.83,3.1-6.79,7.57Z"/><path class="cls-1" d="M0,181.21c4.14,0,8.22-.27,12.24.06a7.88,7.88,0,0,1,5.47,12.84,7,7,0,0,1,2.79,7.48c-.83,4-3.5,6.53-7.61,6.65s-8.47,0-12.9,0Zm6.52,21a30.23,30.23,0,0,0,5.32-.1c.82-.15,2.06-1.35,2-2A3.25,3.25,0,0,0,12,197.63a26.59,26.59,0,0,0-5.49-.12Zm0-9.94a54.15,54.15,0,0,0,5.89-1.5,3.7,3.7,0,0,0-.1-2.47,50.21,50.21,0,0,0-5.79-1.36Z"/><path class="cls-1" d="M37.46,159.68c.63-.67,1.6-1.24,1.84-2,2.43-7.71,4.65-15.46,3.63-23.72Q42.21,128,41.75,122a26.08,26.08,0,0,1,.27-5.85,40.79,40.79,0,0,1,8.16,13.05c3.1,7.92,2.68,15.77-.73,23.82l-1.21-2c-.19.28-.4.44-.41.61-.21,3.43-.35,6.86-.6,10.29-.48,6.72-2.84,8.29-9.26,6.1l-.62,1.68c-1.32-3.64,1.28-5.76,2.31-8.48-.38.18-.92.26-1.06.54a34.94,34.94,0,0,0-2.3,5c-.68,2.1-2,2.57-3.73,1.14a4.51,4.51,0,0,0-1.44-.45l.51-2.15a19.32,19.32,0,0,1,2-2.59A44.52,44.52,0,0,1,37.46,159.68Z"/><path class="cls-1" d="M105,181.23h6.61v10c5.32.37,6.36-1.08,7.41-10.18a46.14,46.14,0,0,1,5.37.08c.48.06,1.21,1.09,1.24,1.71.35,5.76-.7,8.35-5,12.48l7.75,12.89c-2.88,0-5.18.08-7.44-.06-.51,0-1.11-.78-1.44-1.33-1.44-2.4-2.84-4.8-4.09-7.32-.83-1.65-1.87-2.23-3.84-1.36v10H105Z"/><path class="cls-1" d="M99,191a48.12,48.12,0,0,1-5-.05,3.11,3.11,0,0,1-2-1.13,6.2,6.2,0,0,0-6.24-2.7,5.92,5.92,0,0,0-5.23,4,8.52,8.52,0,0,0,1,8.64,5.89,5.89,0,0,0,6.39,2.28c1.3-.31,3-1.06,3.53-2.1,1.08-2.06,2.55-2.29,4.48-2.12,1,.09,2,0,3,0-.11,6.12-5.19,10.45-12.14,10.61-7.75.18-13.44-5-14-12.77s4.61-14,12-14.74S98,184.19,99,191Z"/><path class="cls-1" d="M71.55,208.28a41.46,41.46,0,0,0-4.26,0c-1.83.21-3-.3-3.62-2.18a2.6,2.6,0,0,0-2-1.2c-2.06-.16-4.16,0-6.24-.09s-3.59.13-4.21,2.44c-.12.44-1,.91-1.59,1-1.66.12-3.36,0-5.4,0a18.3,18.3,0,0,1,.71-2.52c3.49-7.68,7-15.42,10.56-23a3.36,3.36,0,0,1,2.33-1.7c.69,0,1.78.88,2.13,1.63,3.63,7.73,7.16,15.5,10.7,23.27A19.87,19.87,0,0,1,71.55,208.28Zm-10.64-9.41-3.15-7.2-3,7.2Z"/><path class="cls-1" d="M238.65,199.47v8.64h-6.72V181.23H248.3v5.86h-9.46v6.24h8.41a41.94,41.94,0,0,1-.08,5.06c-.05.42-1.09,1-1.7,1C243.33,199.55,241.18,199.47,238.65,199.47Z"/><path class="cls-1" d="M226.75,202.1v6H210.47V181.25h6.67v20.83Z"/><path class="cls-1" d="M42.69,208.15H26.34V181.23h6.54V202h9.81Z"/><path class="cls-1" d="M49.16,173.94c-.81-3.17,1.81-10.28,4.73-11.82-1.55,4.18-3,8-4.39,11.83C49.46,174,49.28,173.95,49.16,173.94Z"/><path class="cls-1" d="M37.46,159.68c-1.28,1-2.64,1.92-3.84,3a19.32,19.32,0,0,0-2,2.59l-1.89,2.81A8.67,8.67,0,0,1,30,166c1-1.83,1.92-3.67,3-5.4A3,3,0,0,1,37.46,159.68Z"/><path class="cls-1" d="M101.87,164.56c.42-.59.83-1.19,1.27-1.75a41,41,0,0,0,3.23-4.06c1.21-2,2.63-2.3,4-1.55-1.08,1-2.28,2.09-3.46,3.19l-4.64,4.36Z"/><path class="cls-1" d="M45.91,16.38,51,23.88l-.61.45"/></g></g></g></g></g></g></svg>