<svg xmlns="http://www.w3.org/2000/svg" viewBox="0 0 517.11 434.81"><defs><style>.cls-1{fill:#47a;}</style></defs><title>Asset 2</title><g id="Layer_2" data-name="Layer 2"><g id="Layer_1-2" data-name="Layer 1"><g id="Layer_2-2" data-name="Layer 2"><g id="Layer_1-2-2" data-name="Layer 1-2"><path class="cls-1" d="M51,112a49,49,0,0,1,3.79-5.14c8.47-8.87,9.79-19.76,8.6-31.19-.31-3-1.83-6-3.35-8.74a90.89,90.89,0,0,0-8.6-13.45C46.91,48,49,38.58,52.65,30.5c2.28,2.84,4.2,5.42,6.34,7.81a18.38,18.38,0,0,0,3.44,2.43c.67-1.4,2.09-2.91,1.89-4.17C63.4,30.92,62,25.33,60.84,19.72H59.27l-2.3,11c-2-4-.23-16.37,2.83-18.67a4.91,4.91,0,0,1,4-.24,76.34,76.34,0,0,1,7.51,3.59c1.77-4.09,1.37-7.69-1-10.53C69.19,3.62,66.46,3.73,64,3c.62-.68,2.27-3.26,2.92-3,2.78,1,6,2.24,7.71,4.44,3.48,4.4,5.8,9.7,9.15,14.22,5,6.7,10.33,13.18,19.22,15a5.77,5.77,0,0,1,1.77.89c6.91,4.32,22.59,24.23,25.57,32.66l-3.4-.21,23.33,35.19c2.6,3.92.22,5.83-3.16,6.18-6.6.69-13.26.77-19.9,1.06a29.62,29.62,0,0,0-5.18.39c14.81,8.43,30.58,3.07,46,2.57l.24,1.61-9,4.14c10.33,3.37,20.72,3.55,28.94,10.45H177.31l-.53,1.32,25.2,16.7-.7,2-16.95-2.56-.52.92c2,1.47,4,3.07,6.15,4.39,26.2,16.18,54.26,27.33,84.73,32.59,18.06,3.11,35.68,8.16,52.3,16.15a22.56,22.56,0,0,1,6.77,4.54l-5.86-.53,19.08,11-.43,1.22-4.37.34c11.51,3.88,18,12.78,24.12,22.27,8.44,13.15,21.84,16.75,36.18,17.86,8.12.63,16.3.29,24.46.38h8.28l-9,9.85v1.28c16.28-1.87,30.44,3.12,43.55,12.47-10.57,1.06-21.9-.71-30,9.33L447,294,421.87,296l.09,1.56,5.3.76c-4.14,4.09-6.52,4.56-10.5.71-4.16-4-7.63-8.76-11.38-13.21-4.6-5.47-8.89-11.24-13.84-16.38-5.31-5.51-12-7.4-19.69-5.57-6.41,1.52-9.06,0-11.35-6.43-1.89-5.27-3.42-10.66-6.27-15.7,1.41,6.61,2.5,13.32,4.33,19.81,1.6,5.68,5,8.28,10.87,7.34,12.68-2,20.83,4.24,27.12,13.82,10.23,15.59,20,31.52,30.12,47.15A80.65,80.65,0,0,0,435.84,341c3.36,3.57,3.87,8,1.67,11.44-1.49,2.34-5.64,3.25-8.79,4.12-1.08.3-2.72-1.46-4.2-2.32l-.51,4.92c-4-4.22-4.42-5.86-5.49-16.73-.38,2.77-1.31,5.61-1,8.3.48,4.12-1.67,5.43-4.94,5.91a17.42,17.42,0,0,1-6,0c-1.36-.28-2.5-1.59-4.26-2.79L400,357.11c-1.28-6.6,6-24.55,10.51-26l-.59-1.22c-1.62,1-4.08,1.52-4.73,2.93-3.66,7.94-6.89,16.08-10.77,25.36-.79-3.16-2-5.5-1.78-7.66a115.63,115.63,0,0,1,3.46-17.5c.42-1.48,3.44-2.21,6.21-3.84a33.4,33.4,0,0,0-1.79-5.32c-7.2-14.87-19.74-24-34.13-30.87-2.68-1.28-6.19-1-9.32-1.15-7.32-.23-14.69.19-22-.44-13.54-1.18-24.36-8.36-34.41-16.89C281,257.78,259.21,245,234.48,237.36a15.3,15.3,0,0,0-5.39-.92l15.51,9.28c-9.09,4.78-17.08,8.37-24.41,13s-14.13,10-23.25,11.67l6.72,2.9-.09.9h-9.71l4.33,4.68c-13.46-2.92-25.34-9.75-39.57-7.88l3.66,5.43c-15.36-.55-20.22-18.67-13.9-36.46.31-.07.69-.29.93-.19,6.69,2.8,8.44,1.88,7.42-5.44-1.08-7.82-3.39-15.47-5.4-24.26l13.89,5c-7.52-11.93-18.05-18.58-30.17-23.41,1.89,1.6,3.83,3.14,5.65,4.81s3.61,3.58,6.41,6.37L137.64,204l12.72,26.69-7.88-4.42A49.59,49.59,0,0,0,141,233c-1.9,28.25-3.88,56.49-5.46,84.75-.4,7.22.39,14.19,4.39,21.07,2.59,4.45,2.51,11,2.09,16.49-.49,6.51-9.4,10.47-14.16,6.84l-.76,3.72c-4.09-6.8-2.79-13.65-1.62-20.48l-1.2-.15-3.13,17.3a84.61,84.61,0,0,1-10.49-1c-.61-.12-.63-3.19-1-5.45L107,362.39l-.93-.19c.67-3.25.85-6.71,2.12-9.7,2.58-6.08,5.79-11.89,8.64-17.86a11.15,11.15,0,0,0,1-3.81c3.07-36.67-2.1-71.76-20.06-104.39-.45-.83-1-1.59-1.53-2.38l-1.31.5,10,31.2-.92.58-17.2-27.41-4.31,10.63-6.13-31.37-2.09-.06L71.2,219c-3.76-15.36-5.53-31.11-12.61-45.6V186c-4.14-4.22-7-9-7.12-14.69-.1-5.38.79-10.79,1.35-17.35l-6.2,7c.23-2.46.32-3.79.49-5.11,1-7.91,2.18-15.8,2.87-23.74.56-6.48,2-12.45,6.43-17.46a8.66,8.66,0,0,0,2-5l-6.79,3ZM109.39,85.1a89.76,89.76,0,0,0-1.95,9.33c-.12,1.26.43,3.39,1.31,3.82a53.66,53.66,0,0,0,33.06,5.22L122.52,85.58l-1.09.84.66,5.67-.67.28-8.11-16.24-1.06.39,5.15,18.69ZM105,50.65l1.26-.93L95.59,34.08,92.18,40Z"/><path class="cls-1" d="M288.21,277.56l-6.71-4-1.66.83,5.87,19.11-5,.33c-.07.72-.33,1.31-.14,1.65,4,7.1.16,12-4.68,16.47a85.74,85.74,0,0,1-7.63,6.43c-7.12,5.22-11.31,12.45-14.69,20.38-3.28,7.7-13.84,12.52-21.79,10.19-.68-.2-1.2-1-2-1.65l-2.64,3.3-1.27-.82,11.82-19c-2.18-.27-3.85,1.29-5.49,4.28a68.18,68.18,0,0,1-8.6,12c-.87,1-3.58.39-5.44.51l-.19-1.5-3.76,3.11-1.23-.84c1.53-2.24,2.93-4.58,4.63-6.68a116.34,116.34,0,0,1,7.78-8.83,17.53,17.53,0,0,1,4.51-2.7c3.41-1.77,7.77-2.69,10.12-5.37a140.48,140.48,0,0,0,13.5-18.87c2.53-4.1,1.88-8.83-.95-12.76-4-5.52-8.25-10.84-12.48-16.17-2.59-3.26-5.5-6.26-8-9.6-3.87-5.22-3.45-6.68,2.33-9.24a36.89,36.89,0,0,1,26.79-1.36C272.71,260.41,281.59,267.56,288.21,277.56Z"/><path class="cls-1" d="M315.43,408c2.94-9.42,5.57-17.77,8.16-26.14.65-2.08,1.13-4.7,4-3.73a7.15,7.15,0,0,1,4.09,3.7c2.9,8.19,5.41,16.53,8.49,26.14,2.93-9,5.73-16.63,7.78-24.41,1.32-5,3.56-7.44,9-6.52,2.25.39,4.61.06,7.68.06-.6,2.24-.94,4-1.52,5.61-5.56,15.83-11.22,31.63-16.7,47.49-1,2.92-2.34,4.2-5.64,4.19S336.19,433,335.3,430a165.19,165.19,0,0,0-8.17-21.92q-2.74,8.07-5.47,16.14c-.79,2.36-1.12,5-2.43,7a6.68,6.68,0,0,1-4.78,2.77c-1.63,0-4.22-1.37-4.73-2.75-6.21-16.66-12.13-33.43-18.07-50.18a25.71,25.71,0,0,1-.64-4c4.35,0,8.32-.29,12.19.17,1.21.14,2.69,2.12,3.2,3.56C309.44,389.46,312.2,398.16,315.43,408Z"/><path class="cls-1" d="M426.76,405.33c.06,17.39-11.47,29.42-28.25,29.48-17,.06-28.91-12-28.89-29.49,0-16.75,11.87-28.87,28.4-29.06C414.71,376.07,426.69,388.19,426.76,405.33Zm-42.53.55c.07,9,5.86,15.18,14.24,15.11,8.22-.07,14.06-6.48,14-15.42s-5.94-15.36-14.1-15.45c-8.36-.1-14.22,6.46-14.15,15.76Z"/><path class="cls-1" d="M0,377.36c8.63,0,17.12-.56,25.5.13,13.26,1.08,19.8,16.66,11.39,26.75,5.11,3.94,7.15,9.06,5.81,15.57-1.72,8.36-7.28,13.6-15.85,13.84-8.81.25-17.63.06-26.86.06ZM13.57,421c3.69,0,7.48.45,11.08-.2,1.7-.31,4.3-2.81,4.2-4.15-.14-1.86-2.17-4.72-3.85-5.09-3.58-.78-7.45-.24-11.43-.24Zm0-20.71a112.78,112.78,0,0,0,12.26-3.13c.54-.19.44-4.92-.2-5.14-3.78-1.31-7.8-1.91-12.06-2.83Z"/><path class="cls-1" d="M78,332.53c1.32-1.4,3.33-2.58,3.84-4.22,5.06-16.06,9.69-32.2,7.56-49.4q-1.5-12.39-2.47-24.85a54.32,54.32,0,0,1,.57-12.18,84.94,84.94,0,0,1,17,27.18c6.46,16.5,5.58,32.84-1.53,49.6l-2.52-4.11c-.4.58-.84.92-.86,1.28-.44,7.14-.73,14.28-1.25,21.42-1,14-5.92,17.26-19.28,12.7l-1.3,3.49c-2.74-7.58,2.67-12,4.81-17.67-.79.38-1.91.55-2.21,1.13a72.77,72.77,0,0,0-4.79,10.37c-1.42,4.37-4.11,5.35-7.76,2.38-.69-.56-1.81-.59-3-.94l1.06-4.47a40.23,40.23,0,0,1,4.2-5.39C72.46,336.55,75.28,334.62,78,332.53Z"/><path class="cls-1" d="M218.72,377.4h13.77v20.93c11.07.77,13.25-2.25,15.44-21.2a96.1,96.1,0,0,1,11.18.17c1,.12,2.51,2.28,2.59,3.57.72,12-1.46,17.4-10.32,26l16.13,26.85c-6,0-10.79.17-15.49-.13-1.07-.07-2.32-1.62-3-2.78-3-5-5.91-10-8.52-15.24-1.72-3.44-3.89-4.65-8-2.83v20.74H218.72Z"/><path class="cls-1" d="M206.18,397.86a100.22,100.22,0,0,1-10.37-.11,6.48,6.48,0,0,1-4.22-2.36c-3.22-4.72-7.67-6.15-13-5.63a12.33,12.33,0,0,0-10.9,8.33c-2.4,6.27-2.07,12.46,2.13,18a12.26,12.26,0,0,0,13.31,4.74c2.71-.65,6.21-2.2,7.35-4.38,2.24-4.3,5.31-4.76,9.32-4.41,2.1.19,4.23,0,6.34,0-.22,12.74-10.81,21.76-25.28,22.1-16.14.38-28-10.49-29.14-26.6s9.61-29.22,25-30.69C192.29,375.4,204.1,383.58,206.18,397.86Z"/><path class="cls-1" d="M149,433.74a86.35,86.35,0,0,0-8.87.06c-3.82.43-6.23-.63-7.54-4.54-.4-1.19-2.61-2.38-4.08-2.49-4.3-.33-8.66.1-13-.19s-7.47.28-8.76,5.08c-.25.92-2.13,1.89-3.32,2-3.46.26-7,.09-11.24.09a38.11,38.11,0,0,1,1.48-5.24c7.26-16,14.51-32.11,22-48a7,7,0,0,1,4.85-3.54c1.43-.1,3.7,1.83,4.44,3.4,7.57,16.09,14.92,32.28,22.29,48.47A41.38,41.38,0,0,1,149,433.74Zm-22.16-19.6-6.56-15-6.19,15Z"/><path class="cls-1" d="M497,415.4v18H483v-56h34.1v12.2h-19.7v13h17.51a87.35,87.35,0,0,1-.17,10.54c-.11.87-2.27,2-3.54,2.1C506.75,415.56,502.27,415.4,497,415.4Z"/><path class="cls-1" d="M472.22,420.87v12.58H438.31v-56H452.2v43.38Z"/><path class="cls-1" d="M88.9,433.48H54.84V377.4H68.47v43.36H88.9Z"/><path class="cls-1" d="M102.36,362.23c-1.69-6.6,3.77-21.41,9.85-24.61-3.22,8.71-6.16,16.68-9.14,24.64C103,362.33,102.61,362.24,102.36,362.23Z"/><path class="cls-1" d="M78,332.53c-2.67,2.09-5.49,4-8,6.31a40.23,40.23,0,0,0-4.2,5.39l-3.94,5.85c.3-2.25.16-3.5.63-4.43,2-3.81,4-7.64,6.25-11.25C70.86,331,75.32,330.29,78,332.53Z"/><path class="cls-1" d="M212.14,342.69c.88-1.22,1.72-2.47,2.65-3.64,2.25-2.82,4.88-5.4,6.73-8.45,2.51-4.13,5.47-4.8,8.29-3.22-2.25,2.08-4.74,4.35-7.2,6.65q-4.85,4.53-9.67,9.08Z"/><path class="cls-1" d="M95.6,34.1l10.67,15.62-1.26.93"/></g></g></g></g></svg>